<svg xmlns="http://www.w3.org/2000/svg" viewBox="0 0 720 1080" role="img" aria-label="Da Vinci concept cover">
<defs>
<radialGradient id="cover" cx="50%" cy="42%" r="80%">
  <stop offset="0%" stop-color="#1c1916"/>
  <stop offset="55%" stop-color="#121009"/>
  <stop offset="100%" stop-color="#0a0805"/>
</radialGradient>
<linearGradient id="gold" x1="0" y1="0" x2="1" y2="1">
  <stop offset="0%" stop-color="#e8cf9a"/>
  <stop offset="45%" stop-color="#c8a96a"/>
  <stop offset="100%" stop-color="#9a7b45"/>
</linearGradient>
<filter id="soft"><feGaussianBlur stdDeviation="0.3"/></filter>
</defs>
<rect width="720" height="1080" fill="url(#cover)"/>
<rect x="26" y="26" width="668" height="1028" fill="none" stroke="url(#gold)" stroke-width="1.2" opacity="0.5"/>
<g stroke="url(#gold)" stroke-width="0.9" fill="none" opacity="0.34" filter="url(#soft)">
<path d="M 70.0 75.7 Q 74.6 73.5 79.2 76.2 Q 86.4 72.9 91.3 75.7 Q 96.8 73.1 100.1 75.5 Q 110.4 76.5 114.5 77.1 Q 127.3 72.8 135.2 76.8 Q 142.2 74.5 145.8 76.7 Q 154.9 74.9 161.1 75.9 M 171.0 75.7 Q 177.4 75.3 183.8 75.2 Q 193.3 77.6 197.8 76.3 Q 206.6 78.1 212.2 76.4 Q 219.3 75.2 222.9 76.5 Q 228.8 76.8 232.0 76.5 Q 241.4 77.0 246.0 76.0 Q 258.1 78.6 265.3 75.6 M 282.2 75.7 Q 288.5 78.9 294.7 76.7 Q 304.5 72.7 310.8 75.6 M 320.1 75.7 Q 327.0 73.3 333.8 75.0 Q 341.2 75.4 344.6 75.9 Q 358.3 74.3 365.6 75.5 Q 377.2 73.5 385.0 74.7 Q 393.6 76.3 399.0 75.0 Q 405.9 76.1 410.7 77.1 Q 422.3 76.8 428.4 74.4 Q 442.2 77.6 449.6 75.4 M 464.7 75.7 Q 468.0 72.9 471.3 74.8 Q 477.4 72.5 480.6 74.7 Q 486.3 78.1 489.4 76.1 Q 496.9 74.8 501.6 74.6 Q 513.2 75.6 518.5 74.5 Q 525.4 77.8 529.7 74.7 Q 537.4 73.5 543.1 75.8 Q 553.1 78.0 561.0 76.3 Q 568.1 77.5 572.0 75.8 Q 582.0 77.7 586.1 77.2 Q 599.5 77.2 606.5 74.9 Q 614.3 72.7 617.4 75.1 Q 628.5 75.4 636.3 77.0 Q 646.6 73.9 650.0 74.9 " />
<path d="M 70.0 87.1 Q 76.1 89.7 82.2 88.2 Q 93.6 84.5 100.6 87.6 Q 113.9 87.0 120.7 86.2 Q 133.6 90.2 140.6 86.8 Q 151.3 85.0 157.9 86.0 Q 167.7 84.9 174.7 88.1 Q 186.4 87.5 191.1 86.0 Q 199.4 87.3 205.7 88.4 Q 217.0 85.3 224.1 86.4 Q 233.5 85.6 239.4 86.9 Q 246.9 86.9 251.6 87.4 Q 265.8 87.2 273.3 87.2 M 287.5 87.1 Q 291.4 84.0 295.3 88.0 Q 304.8 87.5 311.4 86.6 Q 322.9 84.6 329.9 87.3 Q 340.0 87.2 346.8 87.3 Q 357.8 87.9 363.1 87.2 Q 372.9 87.4 378.1 87.1 Q 392.2 90.0 399.6 86.4 Q 411.6 84.8 418.8 86.0 M 430.9 87.1 Q 434.3 88.2 437.7 88.0 Q 450.7 88.2 457.3 86.1 Q 467.8 90.0 471.9 86.8 Q 483.5 85.0 490.7 86.9 Q 499.3 86.0 503.2 87.8 Q 510.5 84.1 515.7 86.6 Q 524.2 90.2 527.5 88.0 M 542.5 87.1 Q 545.7 88.9 548.9 86.5 Q 559.1 89.2 566.6 86.4 Q 575.2 88.4 581.1 85.9 Q 588.5 84.4 593.6 88.5 Q 602.2 89.4 605.6 85.8 Q 616.6 87.5 621.3 88.4 Q 630.3 85.5 636.0 86.0 M 646.4 87.1 Q 648.2 85.9 650.0 87.9 " />
<path d="M 70.0 98.6 Q 73.9 97.6 77.8 97.1 M 92.9 98.6 Q 98.7 96.6 104.4 98.5 M 123.6 98.6 Q 128.8 98.5 134.0 99.6 Q 144.4 101.7 150.8 98.1 Q 163.1 98.0 169.3 98.1 Q 174.9 100.1 178.3 97.8 M 193.8 98.6 Q 201.2 99.7 208.5 97.9 Q 217.1 96.4 222.4 98.4 Q 233.5 98.9 241.4 97.8 Q 253.0 95.4 257.8 98.2 Q 266.2 98.6 270.2 97.1 M 282.7 98.6 Q 285.9 95.5 289.1 98.0 Q 297.9 100.2 303.6 99.0 Q 314.1 97.5 319.0 100.0 Q 328.0 95.7 334.2 99.6 Q 347.3 100.6 354.0 97.5 Q 365.8 100.5 373.0 99.6 Q 384.3 99.8 390.7 97.8 Q 397.7 96.0 402.5 99.6 Q 413.4 99.7 419.6 98.5 Q 428.3 98.6 435.0 98.7 M 452.2 98.6 Q 456.5 95.8 460.8 97.9 Q 473.1 101.6 479.8 98.6 Q 490.1 100.3 496.6 98.9 M 509.0 98.6 Q 513.2 100.1 517.5 98.0 M 528.8 98.6 Q 533.2 99.7 537.5 99.1 Q 548.5 98.3 554.0 98.5 Q 560.6 101.6 564.6 99.9 Q 573.8 101.6 580.9 98.4 Q 592.0 96.7 599.7 98.8 Q 610.2 96.2 618.0 99.5 Q 629.0 96.9 635.5 99.8 M 646.0 98.6 Q 648.0 98.3 650.0 98.0 " />
<path d="M 70.0 110.0 Q 74.6 112.2 79.2 108.5 Q 88.5 112.7 92.1 110.6 Q 103.5 109.3 108.3 111.5 Q 118.4 108.6 123.6 108.6 Q 130.5 112.8 134.9 109.2 Q 142.2 109.2 146.2 111.4 Q 158.7 112.6 164.9 111.3 Q 172.9 111.5 176.1 109.9 Q 186.3 107.1 190.8 111.3 Q 198.1 108.7 202.8 110.7 Q 216.0 108.7 222.3 110.2 Q 230.1 108.1 233.9 111.2 Q 245.9 113.2 253.4 109.8 Q 259.6 109.0 263.0 108.8 Q 272.1 112.5 277.9 110.7 Q 287.6 109.2 293.2 109.5 Q 303.4 107.6 311.2 110.0 Q 320.4 108.5 324.5 109.2 Q 336.3 112.2 344.0 111.1 M 357.8 110.0 Q 365.3 109.8 372.8 110.3 Q 382.4 112.1 390.1 111.1 Q 400.5 107.8 404.0 110.1 Q 416.0 110.9 422.6 110.8 Q 430.1 111.8 433.3 109.2 Q 444.4 107.6 449.0 109.3 Q 457.7 107.3 461.3 110.1 Q 470.3 110.6 474.4 108.5 Q 485.7 110.9 493.5 111.2 Q 502.1 112.9 506.4 110.6 M 519.9 110.0 Q 526.2 109.5 532.6 109.3 Q 542.1 107.0 546.2 109.5 Q 554.3 111.9 558.3 110.7 Q 570.7 108.8 578.5 111.0 Q 588.5 108.7 595.3 111.4 Q 603.9 109.5 608.0 110.5 Q 619.7 108.2 624.7 111.4 M 633.9 110.0 Q 638.8 112.5 643.8 111.2 Q 649.7 108.9 650.0 109.1 " />
<path d="M 70.0 121.4 Q 73.2 122.5 76.3 121.1 Q 84.0 118.2 87.9 120.8 Q 95.3 124.4 98.9 120.6 Q 109.8 121.0 116.9 120.1 Q 128.8 119.5 136.4 121.0 M 152.2 121.4 Q 159.3 123.1 166.3 120.1 M 181.9 121.4 Q 186.2 123.0 190.4 122.6 Q 201.9 122.2 209.7 120.7 Q 219.7 118.3 224.0 122.2 Q 238.3 118.4 246.1 120.6 Q 258.2 120.7 266.0 120.7 Q 277.8 119.4 285.4 122.3 Q 298.0 122.1 304.8 120.9 Q 315.3 118.7 322.2 120.5 Q 331.3 118.4 334.7 121.6 Q 345.7 124.6 353.1 120.7 M 365.5 121.4 Q 372.1 121.1 378.6 120.6 Q 389.1 123.0 395.5 122.5 Q 408.0 120.1 415.2 121.6 Q 423.0 119.8 427.0 120.7 Q 435.7 120.3 441.6 121.1 Q 452.7 123.4 456.9 121.9 M 473.6 121.4 Q 480.7 123.6 487.8 122.7 Q 493.6 119.4 497.2 122.8 Q 507.0 123.8 511.8 121.3 Q 522.9 118.9 530.6 121.7 Q 540.5 119.1 545.4 120.5 Q 554.9 119.5 561.2 120.0 Q 568.7 120.2 572.7 120.5 Q 582.0 118.9 585.3 121.1 Q 593.5 119.3 596.9 122.0 Q 605.5 124.3 610.1 120.9 Q 620.0 123.8 625.1 122.9 Q 635.5 119.5 642.2 119.9 Q 649.3 120.8 650.0 122.6 " />
<path d="M 70.0 132.9 Q 73.1 133.2 76.1 133.3 M 93.7 132.9 Q 98.5 132.9 103.4 131.8 Q 114.4 130.4 122.1 132.8 Q 132.1 130.5 136.1 134.2 Q 146.2 135.6 149.5 132.5 Q 163.1 130.7 170.2 133.7 Q 180.6 135.0 187.8 131.9 Q 196.5 132.1 202.1 131.7 Q 212.8 129.9 220.3 133.0 M 238.8 132.9 Q 242.4 133.5 246.0 133.0 Q 256.2 133.4 261.3 132.6 Q 271.8 129.8 277.0 133.2 Q 288.2 134.6 295.0 132.7 Q 301.5 130.5 305.0 132.6 Q 313.0 129.9 318.6 133.3 Q 327.9 132.9 334.8 131.5 Q 347.0 130.5 354.8 133.9 Q 368.8 130.9 375.9 134.3 Q 388.0 130.7 395.5 133.7 M 411.0 132.9 Q 417.8 130.7 424.6 134.0 Q 431.7 132.9 435.4 134.1 Q 443.9 131.7 449.5 131.5 Q 460.1 134.0 467.8 134.0 Q 474.2 133.1 477.7 133.3 Q 487.3 133.4 493.1 134.0 Q 501.8 132.2 507.9 133.8 Q 517.1 132.0 523.0 133.7 Q 533.9 130.0 540.7 133.8 Q 551.9 133.4 559.8 133.3 M 569.6 132.9 Q 573.4 133.6 577.1 132.7 Q 585.3 131.1 589.0 133.3 M 599.9 132.9 Q 603.5 131.9 607.0 132.0 Q 615.9 133.7 620.0 132.8 Q 626.8 130.6 631.1 131.6 Q 643.1 132.2 650.0 132.1 " />
<path d="M 70.0 144.3 Q 75.8 143.3 81.6 144.7 Q 92.5 142.7 99.2 145.5 Q 106.4 142.6 111.5 143.0 M 127.8 144.3 Q 135.5 142.0 143.2 143.4 Q 154.4 146.3 160.6 143.3 Q 167.4 146.8 170.7 145.1 M 189.0 144.3 Q 195.7 144.1 202.4 145.0 Q 210.2 142.6 213.8 142.9 Q 223.9 146.5 230.4 144.9 Q 238.9 146.1 244.1 144.4 Q 255.2 142.5 263.1 145.4 Q 269.3 145.8 273.5 145.6 Q 286.6 143.2 294.0 143.5 Q 307.0 145.3 313.5 145.7 Q 324.3 146.6 330.8 144.1 Q 341.0 142.4 345.5 144.7 Q 351.6 141.3 355.3 143.1 Q 365.7 141.3 369.4 142.9 Q 381.4 145.8 387.8 143.0 Q 399.9 146.3 407.0 145.5 Q 416.9 147.1 424.4 143.1 M 433.8 144.3 Q 441.0 146.3 448.2 144.7 Q 458.8 141.7 463.2 143.1 Q 473.6 143.8 478.2 142.8 Q 488.1 143.4 494.6 143.7 Q 508.7 145.0 516.0 142.9 Q 526.9 143.3 533.8 144.9 Q 545.8 141.7 553.1 145.2 M 563.6 144.3 Q 570.4 147.3 577.2 142.8 Q 588.6 142.3 595.6 144.3 Q 603.6 147.1 607.9 143.6 Q 616.5 141.8 622.0 144.7 Q 630.9 146.1 637.4 144.7 Q 645.6 146.8 650.0 143.0 M 664.1 144.3 " />
<path d="M 70.0 935.7 Q 74.3 938.3 78.6 935.7 Q 86.7 935.5 90.9 935.8 Q 102.9 934.7 109.1 935.2 Q 118.2 937.3 124.5 934.7 Q 134.6 933.3 140.5 935.6 Q 150.9 934.4 154.8 936.3 Q 164.8 934.1 168.6 935.2 Q 177.9 933.7 182.5 937.1 M 201.8 935.7 Q 205.3 935.0 208.9 937.2 Q 220.0 933.8 225.2 936.1 Q 232.7 932.7 237.6 935.4 Q 249.1 936.6 254.6 935.6 Q 262.3 937.3 267.3 936.9 Q 278.2 935.2 285.0 934.9 Q 297.4 937.0 304.3 936.8 Q 315.0 934.5 320.2 936.1 Q 329.6 937.1 336.6 936.1 Q 345.1 936.5 350.4 935.4 Q 359.6 936.7 363.6 936.5 Q 375.4 932.8 383.3 935.8 Q 393.8 935.8 401.5 934.5 Q 412.9 935.8 419.5 936.1 Q 430.7 938.6 435.8 934.8 Q 448.0 933.3 454.8 937.2 M 466.8 935.7 Q 471.8 932.6 476.8 935.5 Q 485.6 934.2 490.4 934.9 Q 501.7 933.9 507.4 936.6 Q 515.0 937.5 518.6 936.6 Q 529.6 934.0 535.4 937.1 Q 546.3 937.7 553.4 935.6 Q 560.5 937.9 564.1 935.3 Q 575.2 934.1 580.1 935.5 M 594.8 935.7 Q 599.2 934.1 603.6 935.1 Q 614.2 936.7 620.4 935.3 Q 630.3 937.8 633.6 936.9 Q 644.8 936.6 650.0 934.3 " />
<path d="M 70.0 947.1 Q 76.3 945.5 82.6 945.9 Q 92.2 946.2 99.0 946.1 Q 109.4 949.6 113.2 947.5 Q 126.6 949.0 134.1 948.2 Q 142.7 948.7 148.4 947.0 Q 159.1 945.4 163.4 946.1 M 177.6 947.1 Q 181.4 947.1 185.1 947.1 Q 192.8 949.3 195.8 947.0 Q 207.9 946.3 215.1 946.9 M 233.0 947.1 Q 239.1 944.1 245.3 947.5 Q 255.4 950.2 260.0 947.2 Q 267.6 948.5 270.8 947.5 Q 279.3 947.0 284.2 947.2 Q 295.2 946.6 300.4 947.3 Q 313.6 946.5 320.8 947.2 Q 332.0 948.1 339.9 948.0 Q 348.0 947.7 352.5 947.5 M 370.2 947.1 Q 377.7 947.4 385.1 945.8 M 396.1 947.1 Q 403.7 947.8 411.3 947.6 Q 423.3 947.9 429.4 947.5 Q 441.3 945.3 447.7 947.6 Q 455.5 945.1 459.0 945.8 Q 471.1 946.3 477.4 948.1 Q 487.6 945.9 491.9 946.9 Q 501.7 949.9 507.9 945.8 M 519.7 947.1 Q 526.8 947.6 533.8 948.4 M 547.2 947.1 Q 553.1 949.9 559.1 948.6 Q 567.0 948.1 570.5 946.3 M 579.3 947.1 Q 585.7 944.7 592.1 948.5 Q 598.2 944.1 601.8 947.8 Q 609.0 944.3 612.9 948.0 Q 625.1 944.5 631.8 947.5 Q 643.7 945.6 650.0 948.5 M 661.7 947.1 " />
<path d="M 70.0 958.6 Q 76.3 960.6 82.5 957.3 Q 89.9 960.9 93.7 958.5 Q 101.9 958.2 107.8 959.1 Q 115.3 959.5 120.1 959.0 Q 131.1 961.4 138.1 959.4 Q 146.2 961.6 149.5 959.2 Q 161.7 961.6 167.7 959.6 Q 177.9 961.1 183.0 958.2 Q 195.9 960.5 203.4 957.9 Q 210.5 959.1 215.6 959.5 M 234.7 958.6 Q 241.8 960.9 248.8 958.8 Q 259.3 959.8 266.3 959.8 M 280.4 958.6 Q 287.4 956.7 294.4 959.3 Q 307.1 959.7 313.2 958.5 Q 322.9 960.4 329.7 958.5 Q 339.0 956.9 345.9 958.8 Q 357.9 958.4 363.6 958.8 Q 370.4 959.9 374.3 958.2 Q 384.7 956.3 390.3 957.2 Q 400.8 959.4 404.4 959.4 Q 411.9 958.7 416.6 957.1 Q 426.1 958.5 433.4 958.8 Q 441.8 961.4 447.0 959.4 Q 457.3 955.6 461.6 957.7 M 470.9 958.6 Q 476.7 960.9 482.5 958.4 Q 492.6 959.2 495.9 958.3 Q 502.8 959.0 507.0 959.0 Q 518.8 958.2 523.8 957.6 Q 534.7 955.6 538.8 957.8 Q 550.1 960.7 557.6 957.2 Q 569.8 961.7 576.0 957.2 Q 586.4 959.7 594.1 958.0 Q 602.6 957.4 606.1 957.8 Q 612.6 956.9 616.4 957.5 M 633.6 958.6 Q 637.5 955.6 641.5 959.9 Q 647.3 961.1 650.0 957.5 M 667.7 958.6 " />
<path d="M 70.0 970.0 Q 77.2 970.8 84.4 969.9 Q 93.5 970.8 98.9 968.9 M 113.7 970.0 Q 119.5 967.7 125.2 971.1 Q 132.4 968.5 136.1 971.0 Q 145.3 968.8 150.7 971.2 Q 156.6 972.5 159.9 970.5 Q 167.3 968.4 171.8 969.1 Q 183.6 972.7 191.6 968.8 Q 198.3 971.4 201.6 969.4 M 221.0 970.0 Q 225.7 967.7 230.4 968.5 Q 240.5 969.6 244.4 971.2 Q 251.2 968.0 254.9 970.8 Q 263.8 967.4 267.2 970.3 Q 275.7 970.7 279.7 970.6 Q 289.8 967.2 293.8 970.7 Q 301.1 972.0 304.4 969.5 Q 316.1 966.9 321.6 971.2 Q 330.3 968.0 334.6 971.0 Q 343.3 970.6 348.1 968.5 Q 358.3 967.6 363.9 970.6 Q 374.6 971.4 379.2 969.6 M 397.9 970.0 Q 405.7 970.0 413.5 970.0 Q 421.2 973.0 424.3 969.2 M 435.3 970.0 Q 442.3 967.0 449.4 968.8 Q 458.0 970.6 461.1 970.2 Q 469.2 972.4 472.7 970.7 Q 480.4 970.0 485.9 969.3 Q 492.2 970.6 495.9 971.1 Q 505.3 967.9 512.1 971.0 Q 523.9 972.2 529.0 970.1 Q 539.8 969.0 546.7 969.2 Q 558.3 971.9 566.2 971.2 Q 575.6 970.1 578.8 971.4 Q 590.6 970.8 595.7 969.6 M 609.8 970.0 Q 615.4 966.9 620.9 968.9 Q 635.4 970.9 643.1 970.9 Q 649.8 970.9 650.0 969.3 " />
<path d="M 70.0 981.4 Q 75.7 984.1 81.4 981.8 Q 89.8 984.3 95.0 980.8 Q 102.1 982.0 105.7 982.8 Q 115.6 981.6 121.0 980.4 Q 128.1 980.8 132.5 980.8 M 146.1 981.4 Q 153.3 982.1 160.5 981.6 Q 172.3 981.2 178.9 981.6 Q 188.5 979.8 193.0 980.6 Q 203.5 978.3 209.5 981.0 Q 221.6 981.4 227.3 980.8 Q 241.1 979.2 248.0 980.1 Q 257.7 980.7 261.0 981.2 M 274.5 981.4 Q 282.2 983.0 290.0 980.4 Q 300.1 982.2 306.5 982.5 Q 319.3 983.0 326.0 982.2 Q 336.9 984.1 343.4 980.3 M 361.9 981.4 Q 367.8 981.4 373.8 982.8 Q 385.6 983.8 392.5 981.8 Q 401.7 982.9 406.9 980.8 Q 415.8 980.3 420.7 982.3 Q 432.2 979.4 437.4 980.8 Q 446.1 978.8 452.0 982.7 Q 462.8 984.4 470.0 980.5 Q 477.2 978.5 480.2 981.6 Q 491.6 981.7 498.4 982.9 Q 509.5 980.7 515.9 981.0 Q 528.6 982.6 536.3 981.5 Q 543.8 981.8 548.8 981.7 Q 560.7 981.0 566.1 981.8 Q 578.7 983.5 584.4 980.4 Q 595.1 981.5 602.2 980.3 Q 615.8 984.6 622.9 982.6 Q 631.5 981.5 635.9 981.4 Q 644.4 982.1 650.0 981.0 " />
<path d="M 70.0 992.9 Q 73.2 992.3 76.4 993.7 Q 83.0 991.6 86.0 993.9 Q 94.9 992.8 98.9 993.0 Q 107.9 996.0 113.5 993.1 Q 121.4 994.5 125.2 991.7 Q 133.3 994.9 138.9 993.2 M 151.0 992.9 Q 157.9 991.7 164.7 993.5 Q 172.8 990.3 177.2 994.1 Q 187.3 992.1 192.6 991.5 Q 206.8 992.5 214.6 993.2 M 231.3 992.9 Q 238.6 991.7 245.9 994.1 Q 258.0 995.8 264.0 992.8 Q 275.7 994.3 280.6 992.0 Q 289.6 994.7 295.0 992.1 Q 301.8 995.9 305.7 992.2 M 320.8 992.9 Q 325.7 992.2 330.7 991.6 Q 338.0 991.2 342.8 991.9 Q 349.4 993.9 352.6 992.4 Q 358.8 991.4 362.3 993.9 Q 372.1 994.8 379.3 991.8 Q 387.9 995.8 392.8 992.0 Q 403.7 992.6 407.8 991.7 Q 420.9 993.4 428.4 992.5 Q 435.7 995.2 439.7 991.7 Q 448.6 994.6 453.0 992.5 Q 462.8 992.2 467.4 991.6 Q 474.9 993.9 479.5 991.7 Q 489.8 991.6 495.3 991.6 Q 502.5 994.2 506.1 992.2 Q 517.0 995.3 523.9 993.9 Q 529.7 994.0 532.8 993.3 Q 542.9 994.1 549.2 992.1 Q 561.6 990.8 567.7 991.7 Q 580.8 989.9 587.4 991.5 Q 594.7 992.1 599.2 991.5 Q 606.7 995.0 610.6 993.1 Q 621.3 994.0 626.5 992.4 Q 635.4 991.5 642.3 991.5 Q 649.3 991.2 650.0 991.7 " />
<path d="M 70.0 1004.3 Q 77.6 1005.9 85.1 1003.0 Q 97.4 1006.4 104.1 1003.6 Q 111.7 1007.0 116.8 1004.9 Q 128.6 1004.0 134.8 1002.9 Q 145.8 1007.0 151.4 1003.2 M 168.8 1004.3 Q 175.8 1002.8 182.9 1004.4 Q 195.4 1002.7 201.1 1003.0 Q 208.9 1003.1 212.9 1003.2 Q 222.7 1002.6 226.9 1004.3 Q 235.8 1003.0 240.6 1005.4 Q 248.0 1006.3 252.6 1004.4 Q 264.8 1004.9 271.1 1004.2 Q 280.5 1002.9 284.1 1003.9 M 295.4 1004.3 Q 299.4 1005.6 303.3 1004.1 Q 311.2 1003.4 316.6 1003.3 M 332.9 1004.3 Q 339.6 1001.6 346.4 1004.9 Q 356.8 1004.2 360.4 1004.1 Q 366.4 1007.0 369.4 1004.7 Q 380.8 1002.7 387.1 1003.5 M 402.0 1004.3 Q 409.2 1003.0 416.4 1003.3 Q 429.2 1002.2 436.8 1005.1 Q 447.6 1002.3 452.2 1005.3 Q 461.6 1003.4 467.3 1005.3 M 481.1 1004.3 Q 487.2 1006.3 493.4 1004.9 Q 505.4 1004.3 510.8 1003.3 Q 517.7 1005.5 521.1 1003.3 Q 528.8 1001.3 532.2 1004.1 Q 538.2 1006.5 541.2 1005.4 Q 551.6 1005.3 556.0 1004.3 Q 565.3 1005.3 570.5 1005.3 Q 581.5 1003.9 586.0 1004.5 Q 593.1 1003.2 596.6 1004.2 Q 610.7 1007.3 618.1 1005.7 Q 626.5 1005.4 629.8 1004.6 Q 641.0 1004.2 648.8 1004.7 " />
</g>
<g stroke="url(#gold)" stroke-width="1.5" fill="none" opacity="0.92" stroke-linecap="round" stroke-linejoin="round">
  <circle cx="360" cy="545" r="208"/>
  <rect x="164" y="349" width="392" height="392"/>
  <!-- head -->
  <circle cx="360" cy="395" r="30"/>
  <!-- torso -->
  <path d="M 360 425 L 360 605"/>
  <path d="M 316 453 Q 360 441 404 453"/>
  <!-- arms horizontal -->
  <path d="M 360 453 L 180 453"/>
  <path d="M 360 453 L 540 453"/>
  <!-- arms raised -->
  <path d="M 360 453 L 210 369"/>
  <path d="M 360 453 L 510 369"/>
  <!-- legs together -->
  <path d="M 360 605 L 314 745"/>
  <path d="M 360 605 L 406 745"/>
  <!-- legs spread -->
  <path d="M 360 605 L 232 731"/>
  <path d="M 360 605 L 488 731"/>
</g>
<text x="360" y="876" text-anchor="middle" fill="url(#gold)" font-family="Georgia, 'Times New Roman', serif" font-size="30" letter-spacing="10" opacity="0.95">.POIESIS</text>
<text x="360" y="905" text-anchor="middle" fill="#c8a96a" font-family="Georgia, serif" font-size="13" letter-spacing="6" opacity="0.6">VINCI EDITION</text>
</svg>